<?xml version="1.0" encoding="UTF-8" standalone="no"?>
<svg width="172px" height="98px" viewBox="0 0 172 98" version="1.1" xmlns="http://www.w3.org/2000/svg" xmlns:xlink="http://www.w3.org/1999/xlink" xmlns:sketch="http://www.bohemiancoding.com/sketch/ns">
    <!-- Generator: Sketch 3.3.3 (12072) - http://www.bohemiancoding.com/sketch -->
    <title>Group</title>
    <desc>Created with Sketch.</desc>
    <defs></defs>
    <g id="Page-1" stroke="none" stroke-width="1" fill="none" fill-rule="evenodd" sketch:type="MSPage">
        <g id="Group" sketch:type="MSLayerGroup" transform="translate(0.000000, 1.638116)">
            <path d="M80.9849226,48.9633543 C80.9849226,45.8143903 66.4485578,35.2613758 66.4485578,22.3728965 C66.4485578,9.48441713 80.613328,0.138116432 89.9155067,0.138116432 C99.2176854,0.138116432 106.426957,5.72527933 106.18407,14.100437 C105.941182,22.4755946 99.9597999,25.650021 99.9597999,25.650021 C99.9597999,25.650021 97.608345,16.8780536 88.5129592,16.8780536 C85.4733169,16.8780536 79.977896,19.2952608 79.977896,25.8720391 C79.977896,32.4488174 87.4530671,46.8456701 88.7883912,47.9045122" id="Path-1-Copy-6" stroke="#C3C3C3" stroke-width="3" sketch:type="MSShapeGroup"></path>
            <path d="M88.0225001,33.0667652 C88.0225001,36.1172466 91.2202004,42.3921694 92.5643827,43.2860011" id="Path-1-Copy-4" stroke="#C3C3C3" stroke-width="3" sketch:type="MSShapeGroup"></path>
            <path d="M92.5643827,33.0667652 C92.5643827,34.7614771 93.9061159,38.1170221 94.835324,38.7441185" id="Path-1-Copy-5" stroke="#C3C3C3" stroke-width="3" sketch:type="MSShapeGroup"></path>
            <text id="CHIMU-HOMEOPATHY" sketch:type="MSTextLayer" font-family="Tablet Gothic" font-size="14" font-weight="bold" letter-spacing="1.75" fill="#B6B6B6">
                <tspan x="0" y="94.4587288">CHIMU HOMEOPATH</tspan>
                <tspan x="162.568" y="94.4587288">Y</tspan>
            </text>
            <path d="M56.0265651,61.7984226 L111.026566,61.7984226" id="Line-Copy" stroke="#BEBEBE" stroke-width="3" stroke-linecap="square" sketch:type="MSShapeGroup"></path>
        </g>
    </g>
</svg>