<?xml version="1.0" encoding="UTF-8" standalone="no"?>
<svg width="59px" height="66px" viewBox="0 0 59 66" version="1.1" xmlns="http://www.w3.org/2000/svg" xmlns:xlink="http://www.w3.org/1999/xlink" xmlns:sketch="http://www.bohemiancoding.com/sketch/ns">
    <!-- Generator: Sketch 3.3.3 (12072) - http://www.bohemiancoding.com/sketch -->
    <title>Group</title>
    <desc>Created with Sketch.</desc>
    <defs></defs>
    <g id="Page-1" stroke="none" stroke-width="1" fill="none" fill-rule="evenodd" sketch:type="MSPage">
        <g id="Group" sketch:type="MSLayerGroup" transform="translate(2.000000, 1.000000)" stroke-width="3">
            <path d="M22.9849226,49.6014707 C22.9849226,46.4525067 8.44855775,35.8994922 8.44855775,23.0110129 C8.44855775,10.1225336 22.613328,0.776232865 31.9155067,0.776232865 C41.2176854,0.776232865 48.4269571,6.36339576 48.1840697,14.7385534 C47.9411823,23.113711 41.9597999,26.2881374 41.9597999,26.2881374 C41.9597999,26.2881374 39.608345,17.5161701 30.5129592,17.5161701 C27.4733169,17.5161701 21.977896,19.9333772 21.977896,26.5101555 C21.977896,33.0869338 29.4530671,47.4837865 30.7883912,48.5426286" id="Path-1-Copy-6" stroke="#C3C3C3" sketch:type="MSShapeGroup"></path>
            <path d="M30.0225001,33.7048817 C30.0225001,36.755363 33.2202004,43.0302859 34.5643827,43.9241175" id="Path-1-Copy-4" stroke="#C3C3C3" sketch:type="MSShapeGroup"></path>
            <path d="M34.5643827,33.7048817 C34.5643827,35.3995935 35.9061159,38.7551385 36.835324,39.3822349" id="Path-1-Copy-5" stroke="#C3C3C3" sketch:type="MSShapeGroup"></path>
            <path d="M0.345859166,62.6381164 L55.3458596,62.6381164" id="Line-Copy" stroke="#E9E9E9" stroke-linecap="square" sketch:type="MSShapeGroup"></path>
        </g>
    </g>
</svg>